<svg width="45" height="45" viewBox="0 0 45 45" fill="none" xmlns="http://www.w3.org/2000/svg">
<g clip-path="url(#clip0_2432_699)">
<rect width="45" height="45" rx="10" fill="black" fill-opacity="0.01"/>
<path d="M14.2457 14.8421L18.3834 19.037L16.0763 21.3759L8 13.188L16.0763 5L18.3834 7.33895L14.2457 11.5338H25.9474C29.4091 11.5338 32.7291 12.928 35.177 15.4097C37.6248 17.8914 39 21.2573 39 24.7669C39 28.2765 37.6248 31.6424 35.177 34.1241C32.7291 36.6058 29.4091 38 25.9474 38H11.2632V34.6917H25.9474C28.5437 34.6917 31.0337 33.6461 32.8696 31.7848C34.7055 29.9236 35.7368 27.3991 35.7368 24.7669C35.7368 22.1347 34.7055 19.6103 32.8696 17.749C31.0337 15.8878 28.5437 14.8421 25.9474 14.8421H14.2457Z" fill="white"/>
</g>
<rect x="0.05" y="0.05" width="44.9" height="44.9" rx="9.95" stroke="white" stroke-width="0.1"/>
<defs>
<clipPath id="clip0_2432_699">
<rect width="45" height="45" rx="10" fill="white"/>
</clipPath>
</defs>
</svg>
