<svg width="45" height="45" viewBox="0 0 45 45" fill="none" xmlns="http://www.w3.org/2000/svg">
<rect x="0.05" y="0.05" width="44.9" height="44.9" rx="9.95" fill="black" fill-opacity="0.01"/>
<rect x="0.05" y="0.05" width="44.9" height="44.9" rx="9.95" stroke="white" stroke-width="0.1"/>
<path d="M22.5091 5.77808C17.9651 5.77808 17.3949 5.79792 15.6102 5.87909C13.829 5.96059 12.6132 6.24237 11.5494 6.65584C10.4489 7.08285 9.51546 7.65408 8.58549 8.58371C7.65482 9.51302 7.08315 10.4458 6.65442 11.5451C6.23961 12.6085 5.95726 13.8237 5.8771 15.6029C5.79729 17.3862 5.77637 17.9564 5.77637 22.497C5.77637 27.0376 5.79659 27.6057 5.87744 29.389C5.95937 31.1689 6.24136 32.3838 6.65476 33.4468C7.08245 34.5465 7.6541 35.4792 8.58444 36.4085C9.51409 37.3385 10.4475 37.9111 11.5473 38.3382C12.6118 38.7516 13.828 39.0334 15.6088 39.1149C17.3935 39.196 17.9634 39.2159 22.507 39.2159C27.0513 39.2159 27.6198 39.196 29.4045 39.1149C31.1857 39.0334 32.4029 38.7516 33.4674 38.3381C34.5675 37.9111 35.4996 37.3385 36.4292 36.4085C37.3599 35.4792 37.9316 34.5465 38.3603 33.4472C38.7716 32.3838 39.0539 31.1685 39.1376 29.3894C39.2178 27.606 39.2387 27.0376 39.2387 22.497C39.2387 17.9564 39.2178 17.3866 39.1376 15.6032C39.0539 13.8233 38.7716 12.6085 38.3603 11.5454C37.9316 10.4458 37.3599 9.51301 36.4292 8.58371C35.4985 7.65372 34.5678 7.0825 33.4664 6.65582C32.3997 6.24237 31.1832 5.96059 29.4021 5.87909C27.6174 5.79792 27.0492 5.77808 22.5039 5.77808H22.5091ZM21.0081 8.79097C21.4536 8.79027 21.9507 8.79097 22.5091 8.79097C26.9764 8.79097 27.5058 8.80699 29.2699 8.8871C30.9013 8.96164 31.7866 9.23401 32.3764 9.46285C33.1572 9.76588 33.7139 10.1281 34.2991 10.7133C34.8847 11.2985 35.2472 11.8558 35.5512 12.636C35.7802 13.2246 36.0531 14.1093 36.1273 15.7394C36.2075 17.5019 36.225 18.0313 36.225 22.4932C36.225 26.955 36.2075 27.4845 36.1273 29.2469C36.0528 30.877 35.7802 31.7617 35.5512 32.3503C35.2479 33.1306 34.8847 33.6861 34.2991 34.2709C33.7135 34.8561 33.1575 35.2183 32.3764 35.5214C31.7873 35.7513 30.9013 36.0229 29.2699 36.0975C27.5062 36.1776 26.9764 36.195 22.5091 36.195C18.0415 36.195 17.512 36.1776 15.7482 36.0975C14.1169 36.0222 13.2316 35.7499 12.6414 35.521C11.8606 35.218 11.3029 34.8557 10.7173 34.2706C10.1317 33.6854 9.76924 33.1295 9.46527 32.349C9.23626 31.7603 8.96334 30.8756 8.8891 29.2455C8.80892 27.483 8.79288 26.9536 8.79288 22.489C8.79288 18.0243 8.80892 17.4977 8.8891 15.7352C8.96369 14.1051 9.23626 13.2204 9.46527 12.6311C9.76852 11.8509 10.1317 11.2936 10.7173 10.7084C11.3029 10.1232 11.8606 9.76101 12.6414 9.45729C13.2312 9.22739 14.1169 8.95573 15.7482 8.88082C17.2917 8.81116 17.8899 8.79027 21.0082 8.78677L21.0081 8.79097ZM31.4401 11.567C30.3317 11.567 29.4324 12.4646 29.4324 13.5726C29.4324 14.6802 30.3317 15.5788 31.4401 15.5788C32.5486 15.5788 33.4479 14.6802 33.4479 13.5726C33.4479 12.4649 32.5486 11.5663 31.4401 11.5663L31.4401 11.567ZM22.5091 13.9111C17.764 13.9111 13.9169 17.7554 13.9169 22.497C13.9169 27.2385 17.764 31.0811 22.5091 31.0811C27.2542 31.0811 31.0999 27.2385 31.0999 22.497C31.0999 17.7554 27.2538 13.9111 22.5088 13.9111H22.5091ZM22.5091 16.924C25.589 16.924 28.0862 19.419 28.0862 22.497C28.0862 25.5747 25.589 28.07 22.5091 28.07C19.4288 28.07 16.932 25.5747 16.932 22.497C16.932 19.419 19.4288 16.924 22.5091 16.924Z" fill="white"/>
</svg>
