<svg width="45" height="45" viewBox="0 0 45 45" fill="none" xmlns="http://www.w3.org/2000/svg">
<rect x="0.05" y="-0.05" width="44.9" height="44.9" rx="9.95" transform="matrix(1 0 0 -1 0 44.9)" fill="black" fill-opacity="0.01"/>
<rect x="0.05" y="-0.05" width="44.9" height="44.9" rx="9.95" transform="matrix(1 0 0 -1 0 44.9)" stroke="white" stroke-width="0.1"/>
<path fill-rule="evenodd" clip-rule="evenodd" d="M14.4501 36.3079V17.9105H8.33511V36.3079H14.4501ZM11.3926 15.3986C13.525 15.3986 14.8522 13.9859 14.8522 12.2205C14.8125 10.4152 13.525 9.04172 11.433 9.04172C9.34127 9.04172 7.97363 10.4152 7.97363 12.2205C7.97363 13.9859 9.30059 15.3986 11.3527 15.3986H11.3926Z" fill="white"/>
<path fill-rule="evenodd" clip-rule="evenodd" d="M17.834 36.3079H23.9489V26.034C23.9489 25.4842 23.9886 24.9349 24.1501 24.5418C24.5921 23.4432 25.5983 22.3054 27.2876 22.3054C29.5003 22.3054 30.3854 23.9925 30.3854 26.4657V36.3079H36.4998V25.7591C36.4998 20.1082 33.483 17.4788 29.4599 17.4788C26.161 17.4788 24.7128 19.3227 23.9082 20.5786H23.949V17.9105H17.8342C17.9144 19.6368 17.834 36.3079 17.834 36.3079Z" fill="white"/>
</svg>
