<svg width="45" height="45" viewBox="0 0 45 45" fill="none" xmlns="http://www.w3.org/2000/svg">
<rect x="0.05" y="-0.05" width="44.9" height="44.9" rx="9.95" transform="matrix(1 0 0 -1 0 44.9)" fill="black" fill-opacity="0.01"/>
<rect x="0.05" y="-0.05" width="44.9" height="44.9" rx="9.95" transform="matrix(1 0 0 -1 0 44.9)" stroke="white" stroke-width="0.1"/>
<path d="M23.4648 38C22.8004 38 22.1528 37.6655 21.5405 37.0036L16.1041 31.1448H9.7022C7.66019 31.1448 6 29.3544 6 27.1555V17.8445C6 15.6439 7.66019 13.8552 9.7022 13.8552H16.1041L21.5388 7.99642C22.1528 7.33625 22.8004 7 23.4648 7C24.506 7 25.5556 7.86263 25.5556 9.78857V35.2114C25.5556 35.898 25.4244 36.4807 25.1653 36.9437C24.7902 37.6145 24.1695 38 23.4648 38ZM9.7022 16.8692C9.21104 16.8692 8.79557 17.3163 8.79557 17.8462V27.1573C8.79557 27.6872 9.21104 28.1344 9.7022 28.1344H16.6827C17.0545 28.1344 17.4094 28.2928 17.6718 28.5762L22.76 34.0601V10.9434L17.6718 16.4273C17.4094 16.709 17.0545 16.8692 16.6827 16.8692H9.7022Z" fill="white"/>
<path d="M28.4421 28.6062C27.9847 28.6062 27.5568 28.2896 27.3965 27.7838C27.1927 27.1439 27.4977 26.4421 28.0749 26.216C29.4955 25.6616 30.4493 24.1692 30.4493 22.5009C30.4493 20.8326 29.4955 19.3385 28.0749 18.7841C27.4977 18.558 27.1927 17.8562 27.3965 17.2163C27.6004 16.5765 28.2321 16.2381 28.8109 16.4643C31.1168 17.3637 32.6666 19.7891 32.6666 22.4992C32.6666 25.2093 31.1168 27.6347 28.8109 28.5341C28.6895 28.581 28.5651 28.6045 28.4421 28.6045V28.6062Z" fill="white"/>
<path d="M28.7642 34.2427C28.0991 34.2427 27.5029 33.7475 27.3633 33.0278C27.2031 32.2031 27.701 31.3961 28.4747 31.2251C32.3344 30.3737 35.1362 26.7059 35.1362 22.5003C35.1362 18.2946 32.3344 14.6269 28.4747 13.7754C27.6993 13.6044 27.2031 12.7975 27.3633 11.9727C27.5236 11.148 28.2817 10.6189 29.0554 10.7899C34.2384 11.9335 37.9999 16.8588 37.9999 22.5003C37.9999 28.1417 34.2384 33.067 29.0554 34.2106C28.9572 34.232 28.8607 34.2427 28.7642 34.2427Z" fill="white"/>
</svg>
